# xmcd CD database file
#
# Track frame offsets:
#	150
#	1140
#	12942
#	27117
#	47628
#	62061
#	68847
#	81847
#	97799
#	109047
#	125637
#	143419
#	155804
#	170152
#
# Disc length: 2451 seconds
#
# Revision: 1
# Processed by: cddbd v1.5.1PL0 Copyright (c) Steve Scherf et al.
# Submitted via: CDex 1.51
#
DISCID=ad09910e
DTITLE=BLUE-3 - METAL DRAGON
DYEAR=1998
DGENRE=Heavy Metal
TTITLE0=燃えよ香港メタルマスター
TTITLE1=ドラゴンへの道
TTITLE2=死亡の塔
TTITLE3=ミラクル・ガイ（少林寺木人拳）
TTITLE4=プロジェクトA
TTITLE5=グリーン・ホーネット
TTITLE6=死亡遊戯
TTITLE7=拳法混乱（酔拳）
TTITLE8=カンニング・モンキー（天中拳）
TTITLE9=スパルタンX
TTITLE10=デンジャラス・アイズ（蛇鶴八拳）
TTITLE11=ドラゴン怒りの鉄拳
TTITLE12=燃えよドラゴン
TTITLE13=メタルドラゴン
EXTD=YEAR: 1998
EXTT0=
EXTT1=
EXTT2=
EXTT3=
EXTT4=
EXTT5=
EXTT6=
EXTT7=
EXTT8=
EXTT9=
EXTT10=
EXTT11=
EXTT12=
EXTT13=
PLAYORDER=
